<svg width="40" height="40" viewBox="0 0 40 40" fill="none" xmlns="http://www.w3.org/2000/svg">
<rect width="40" height="40" rx="4" fill="#E60023"/>
<g clip-path="url(#clip0_149_2914)">
<path d="M20.2445 10.999C15.3111 10.999 12.6875 14.1604 12.6875 17.6076C12.6875 19.2063 13.5808 21.1999 15.0107 21.8321C15.2279 21.93 15.346 21.8884 15.3944 21.687C15.4371 21.534 15.625 20.7971 15.7161 20.4495C15.7443 20.3381 15.7296 20.2413 15.6396 20.1367C15.1649 19.5877 14.788 18.5875 14.788 17.6492C14.788 15.245 16.6994 12.9105 19.952 12.9105C22.7646 12.9105 24.7323 14.7376 24.7323 17.3511C24.7323 20.3043 23.1696 22.3474 21.1389 22.3474C20.015 22.3474 19.1779 21.4654 19.4434 20.3741C19.7641 19.0746 20.393 17.6773 20.393 16.7402C20.393 15.8997 19.9182 15.2045 18.9484 15.2045C17.8042 15.2045 16.8761 16.3374 16.8761 17.8585C16.8761 18.8249 17.2181 19.4774 17.2181 19.4774C17.2181 19.4774 16.0863 24.0496 15.8759 24.9035C15.5204 26.3492 15.9243 28.6904 15.9591 28.8918C15.9805 29.0032 16.1054 29.0381 16.1752 28.947C16.2865 28.8007 17.6546 26.8487 18.0382 25.4379C18.1777 24.9238 18.7504 22.8391 18.7504 22.8391C19.1273 23.5197 20.2152 24.0901 21.374 24.0901C24.8212 24.0901 27.312 21.0604 27.312 17.3004C27.2997 13.6958 24.2148 10.999 20.2445 10.999Z" fill="white"/>
</g>
<defs>
<clipPath id="clip0_149_2914">
<rect width="18" height="18" fill="white" transform="translate(11 10.999)"/>
</clipPath>
</defs>
</svg>
